<?xml version="1.0" encoding="UTF-8" standalone="no"?>
<!-- Created with Inkscape (http://www.inkscape.org/) -->

<svg
   width="29.99972mm"
   height="30.000237mm"
   viewBox="0 0 29.99972 30.000237"
   version="1.1"
   id="svg5"
   inkscape:version="1.2.2 (732a01da63, 2022-12-09)"
   sodipodi:docname="描画.svg"
   inkscape:export-filename="描画.png"
   inkscape:export-xdpi="383.979"
   inkscape:export-ydpi="383.979"
   xmlns:inkscape="http://www.inkscape.org/namespaces/inkscape"
   xmlns:sodipodi="http://sodipodi.sourceforge.net/DTD/sodipodi-0.dtd"
   xmlns="http://www.w3.org/2000/svg"
   xmlns:svg="http://www.w3.org/2000/svg">
  <sodipodi:namedview
     id="namedview7"
     pagecolor="#ffffff"
     bordercolor="#666666"
     borderopacity="1.0"
     inkscape:showpageshadow="2"
     inkscape:pageopacity="0.0"
     inkscape:pagecheckerboard="0"
     inkscape:deskcolor="#d1d1d1"
     inkscape:document-units="mm"
     showgrid="false"
     inkscape:zoom="5.6568543"
     inkscape:cx="105.62408"
     inkscape:cy="65.584154"
     inkscape:window-width="1920"
     inkscape:window-height="1147"
     inkscape:window-x="-8"
     inkscape:window-y="-8"
     inkscape:window-maximized="1"
     inkscape:current-layer="layer1" />
  <defs
     id="defs2">
    <rect
       x="182.24875"
       y="263.98093"
       width="29.854792"
       height="35.442631"
       id="rect2353" />
  </defs>
  <g
     inkscape:label="Layer 1"
     inkscape:groupmode="layer"
     id="layer1"
     transform="translate(-36.798783,-58.938635)">
    <path
       id="path1106"
       style="fill:#c83737;stroke-width:0.1;paint-order:stroke fill markers"
       d="m 46.798689,58.938635 a 10,10 0 0 0 -9.999906,9.999907 10,10 0 0 0 1.339453,5.000211 10,10 0 0 0 -1.339453,4.999695 10,10 0 0 0 9.999906,10.000423 10,10 0 0 0 4.999695,-1.33997 10,10 0 0 0 5.000212,1.33997 10,10 0 0 0 9.999906,-10.000423 10,10 0 0 0 -1.33997,-4.998661 10,10 0 0 0 1.33997,-5.001245 10,10 0 0 0 -9.999906,-9.999907 10,10 0 0 0 -5.000729,1.33997 10,10 0 0 0 -4.999178,-1.33997 z" />
    <path
       id="path1106-3"
       style="fill:#e9afaf;stroke-width:0.1;paint-order:stroke fill markers"
       d="m 56.790822,60.007803 c -0.17015,0.0014 -0.340471,0.0084 -0.51108,0.02067 -1.558817,0.09162 -3.0754,0.601435 -4.412134,1.400431 -1.554334,-0.695987 -3.148346,-1.449055 -4.893241,-1.412834 -4.219758,-0.179569 -8.248733,3.082466 -8.952942,7.246587 -0.434577,2.174987 0.04458,4.45799 1.113627,6.377388 0.219721,0.948927 -0.727029,1.634398 -0.848527,2.535246 -1.262151,3.776905 0.341625,8.299839 3.788916,10.335286 2.7048,1.714757 6.32029,1.802256 9.101254,0.20929 0.4852,-0.443283 0.948046,-0.181152 1.423685,0.127124 3.114,1.622491 7.169071,1.296692 9.865031,-1.000456 2.753072,-2.24994 3.993051,-6.207336 2.825667,-9.595797 -0.256576,-0.8165 -0.641494,-1.584372 -1.046447,-2.335774 1.6457,-2.513685 1.952066,-5.840113 0.701249,-8.581905 -1.374591,-3.18287 -4.695339,-5.354618 -8.155058,-5.325257 z m -10.010758,0.520899 c 1.810891,-0.01147 3.497834,0.746777 5.123201,1.496032 0.756755,-0.441647 1.544118,-0.842023 2.387451,-1.089856 3.226938,-1.071852 6.991426,0.118971 9.071798,2.792595 2.325395,2.812798 2.405269,7.113935 0.33538,10.08879 0.0137,0.448123 0.444056,0.905067 0.603064,1.368392 1.488097,2.852145 1.075892,6.499776 -0.929659,8.99635 -2.101286,2.774141 -6.008401,3.831225 -9.270752,2.723864 -0.960784,-0.176607 -1.735739,-1.16651 -2.759521,-0.876432 -2.383897,1.522453 -5.553465,1.735168 -8.1132,0.510047 -3.655794,-1.594667 -5.622557,-6.046542 -4.537191,-9.845911 0.144692,-1.103699 1.229423,-1.957225 0.976685,-3.129008 -0.817946,-1.561284 -1.376259,-3.325286 -1.253671,-5.112866 0.133756,-4.09886 3.729014,-7.668933 7.800558,-7.893059 0.19005,-0.01852 0.378523,-0.02775 0.565857,-0.02894 z m 5.068941,6.062162 c -1.013031,0.03893 -2.043999,0.187901 -2.967778,0.624251 -2.785147,1.137183 -4.658276,4.158365 -4.420402,7.158736 0.119291,2.946933 2.24325,5.659237 5.048788,6.536552 2.86796,0.994869 6.27101,-0.03735 8.108549,-2.452046 1.894646,-2.343495 2.058049,-5.863662 0.435632,-8.389669 -1.298742,-2.126679 -3.722475,-3.448624 -6.204789,-3.477824 z m -0.05529,0.521932 a 6.8470259,6.8205895 0 0 1 6.847127,6.820255 6.8470259,6.8205895 0 0 1 -6.847127,6.820773 6.8470259,6.8205895 0 0 1 -6.847127,-6.820773 6.8470259,6.8205895 0 0 1 6.847127,-6.820255 z" />
    <path
       id="path1106-3-8"
       style="fill:#e9afaf;stroke-width:0.1;paint-order:stroke fill markers"
       d="m 46.521484,61.0625 c -2.035737,0.06639 -3.973604,0.984295 -5.345703,2.402344 -2.069807,2.031151 -2.785191,5.226493 -1.829828,7.951822 0.223993,1.060052 1.195159,1.993558 0.806391,3.128256 -0.309798,0.967349 -0.976096,1.796057 -1.077753,2.834499 -0.76611,3.695795 1.470736,7.826336 5.116187,8.977193 2.315996,0.837238 4.971947,0.447487 7.037738,-0.844895 1.271376,-0.365474 2.223553,0.826674 3.415424,1.004351 3.283691,0.946297 7.13119,-0.453289 8.860909,-3.444669 1.572538,-2.508789 1.529258,-5.87049 -0.04317,-8.368067 -0.280429,-0.474593 -0.458579,-1.088726 0.0087,-1.509693 1.751449,-2.741387 1.540159,-6.662326 -0.505538,-9.127235 -2.026584,-2.613613 -5.76778,-3.707912 -8.865221,-2.506187 -0.762066,0.260211 -1.470833,0.648527 -2.16212,1.056969 C 50.234489,61.842213 48.480004,60.982841 46.521484,61.0625 Z M 51.875,66.060547 c 3.548075,0.0048 6.913737,2.647133 7.629128,6.144921 0.783062,3.242791 -0.756967,6.876946 -3.676564,8.513984 -2.899221,1.748937 -6.895234,1.351535 -9.350902,-0.995228 -2.648808,-2.329833 -3.350864,-6.525508 -1.571472,-9.577946 1.352113,-2.527442 4.120227,-4.092365 6.96981,-4.085731 z" />
    <path
       id="text2351"
       style="font-style:normal;font-variant:normal;font-weight:normal;font-stretch:normal;font-size:21.3333px;line-height:1.25;font-family:HGPGothicM;-inkscape-font-specification:HGPGothicM;letter-spacing:0px;word-spacing:0px;white-space:pre;shape-inside:url(#rect2353);fill:#e9afaf;fill-opacity:1;stroke:none;stroke-width:0.516889"
       d="m 48.766551,69.73366 c 0.01637,1.885941 -0.03319,3.773965 0.02552,5.658629 0.05215,1.050431 0.393647,2.203605 1.346459,2.781197 1.346236,0.929045 3.451519,0.493701 4.216881,-0.98229 0.657395,-1.341089 0.415387,-2.882337 0.465402,-4.322079 0,-1.221485 0,-2.442971 0,-3.664456 -0.553568,0 -1.10714,0 -1.660707,0 -0.01542,2.008857 0.03131,4.019564 -0.02406,6.027263 -0.0386,0.648721 -0.203091,1.482219 -0.936018,1.670538 -0.675905,0.222835 -1.512437,-0.169747 -1.624767,-0.908282 -0.262115,-1.140174 -0.104071,-2.323275 -0.148001,-3.482445 0,-1.102358 0,-2.204716 0,-3.307074 -0.553567,0 -1.10714,0 -1.660707,0 0,0.176331 0,0.352668 0,0.528999 z" />
  </g>
</svg>
